<?xml version="1.0" encoding="UTF-8" standalone="no"?>
<svg
   version="1.1"
   id="Layer_1"
   x="0px"
   y="0px"
   viewBox="0 0 34.455842 49.518837"
   xml:space="preserve"
   width="34.455841"
   height="49.518837"
   xmlns="http://www.w3.org/2000/svg"
   xmlns:svg="http://www.w3.org/2000/svg"><defs
   id="defs1">
	
	
	
	
	
	
	
	
	
	
	
	
	
	
	
	
	
	
	
	
	
	
	
	
	
	
	
	
	
	
	
	
	
	
	
	
	
	
	
	
	
	
	
	
	
	
	
	
	
	
	
	
	
	
	
	
	
	
	
	
	
	
	
	
	
	
	
</defs>
<rect
   style="fill:#000000;stroke-width:2.94725;stroke-linecap:round;stroke-linejoin:round"
   id="rect1"
   width="34.455841"
   height="49.518837"
   x="0"
   y="0" /><rect
   style="fill:#ff0000;stroke:none;stroke-width:0.174431;stroke-linecap:round;stroke-linejoin:round"
   id="rect7"
   width="16.993385"
   height="12.151333"
   x="9.4124975"
   y="35.870934" /><rect
   style="fill:#ff0000;stroke:none;stroke-width:0.152795;stroke-linecap:round;stroke-linejoin:round"
   id="rect6-18"
   width="16.840992"
   height="9.408246"
   x="9.5648918"
   y="27.870932" /><circle
   style="opacity:1;fill:#ff0000;stroke:none;stroke-width:0.189641;stroke-linecap:round;stroke-linejoin:round"
   id="path25"
   cx="17.810019"
   cy="13.933874"
   r="11.994214" /><g
   id="g1"
   transform="matrix(0.07079173,0,0,0.07084491,-6.32996,-2.3250332)"
   style="fill:#ffffff">
	<path
   d="m 341,96.4 c -44.5,0 -83.9,21.9 -108.1,55.5 -7.9,11 -14.2,23.2 -18.5,36.4 h 21.6 52.1 v 90.1 h 39.3 v -24.3 h 22.7 v 87.8 c -3,0.3 -6.1,0.4 -9.2,0.4 -62.2,0 -112.8,-50.6 -112.8,-112.8 0,-10.3 1.4,-20.2 4,-29.6 h -21 c -2.2,9.5 -3.3,19.4 -3.3,29.6 0,73.4 59.7,133.1 133.1,133.1 3.1,0 6.1,-0.1 9.2,-0.3 1.7,-0.1 3.4,-0.3 5.1,-0.5 0.1,0 0.3,0 0.4,0 11.8,-1.3 23.1,-4.1 33.8,-8.3 v 0 c 0,0 0,0 0,0 V 254.1 H 428 V 217.7 H 327.5 V 188.2 H 366 V 151.8 H 259.3 c 20.5,-21.6 49.6,-35.1 81.7,-35.1 62.2,0 112.8,50.6 112.8,112.8 0,40.1 -21,75.4 -52.6,95.4 v 23.4 c 43.3,-22 73,-67 73,-118.8 C 474.1,156.1 414.4,96.4 341,96.4 Z"
   id="path1"
   style="fill:#ffffff" />
</g>
<text
   xml:space="preserve"
   style="font-size:9.52032px;line-height:0.95;font-family:sans-serif;text-align:center;text-anchor:middle;fill:#f9f9f9;stroke-width:0.297508"
   x="17.768185"
   y="36.143906"
   id="text1"><tspan
     x="17.768185"
     y="36.143906"
     id="tspan5"
     style="line-height:0.95">IHP</tspan><tspan
     x="17.768185"
     y="45.18821"
     id="tspan7"
     style="line-height:0.95">0p3</tspan></text></svg>
